<svg version="1.1" id="Layer_1" xmlns="http://www.w3.org/2000/svg" xmlns:xlink="http://www.w3.org/1999/xlink" x="0px" y="0px"
	 width="100%" viewBox="0 0 1200 1200" enable-background="new 0 0 1200 1200" xml:space="preserve">
<path fill="#FC904D" opacity="1.000000" stroke="none" 
	d="
M1201.000000,457.000000 
	C1201.000000,705.333313 1201.000000,953.166687 1201.000000,1201.000000 
	C801.000000,1201.000000 401.000000,1201.000000 1.000000,1201.000000 
	C1.000000,801.000000 1.000000,401.000000 1.000000,1.000000 
	C401.000000,1.000000 801.000000,1.000000 1201.000000,1.000000 
	C1201.000000,152.833328 1201.000000,304.666656 1201.000000,457.000000 
M163.500122,32.638092 
	C121.835648,32.638878 80.170914,32.708881 38.507072,32.546310 
	C33.701458,32.527565 31.659798,33.966286 32.325287,38.781963 
	C32.438290,39.599670 32.341808,40.446350 32.341808,41.279644 
	C32.341690,415.428589 32.341564,789.577515 32.341492,1163.726440 
	C32.341488,1171.808594 32.342007,1171.812134 40.553371,1171.812256 
	C415.035614,1171.812866 789.517883,1171.812866 1164.000122,1171.812134 
	C1171.931641,1171.812012 1171.931152,1171.806885 1171.931152,1163.955322 
	C1171.931030,789.639771 1171.930786,415.324219 1171.929077,41.008659 
	C1171.929077,39.342289 1172.346558,37.496265 1171.763550,36.061558 
	C1171.213501,34.708225 1169.774780,33.334705 1168.403564,32.800903 
	C1166.952026,32.235874 1165.119141,32.639496 1163.452759,32.639488 
	C830.468567,32.637749 497.484344,32.637737 163.500122,32.638092 
z"/>
<path fill="#053A82" opacity="1.000000" stroke="none" 
	d="
M164.000122,32.637878 
	C497.484344,32.637737 830.468567,32.637749 1163.452759,32.639488 
	C1165.119141,32.639496 1166.952026,32.235874 1168.403564,32.800903 
	C1169.774780,33.334705 1171.213501,34.708225 1171.763550,36.061558 
	C1172.346558,37.496265 1171.929077,39.342289 1171.929077,41.008659 
	C1171.930786,415.324219 1171.931030,789.639771 1171.931152,1163.955322 
	C1171.931152,1171.806885 1171.931641,1171.812012 1164.000122,1171.812134 
	C789.517883,1171.812866 415.035614,1171.812866 40.553371,1171.812256 
	C32.342007,1171.812134 32.341488,1171.808594 32.341492,1163.726440 
	C32.341564,789.577515 32.341690,415.428589 32.341808,41.279644 
	C32.341808,40.446350 32.438290,39.599670 32.325287,38.781963 
	C31.659798,33.966286 33.701458,32.527565 38.507072,32.546310 
	C80.170914,32.708881 121.835648,32.638878 164.000122,32.637878 
M216.499969,1066.193970 
	C526.085999,1066.193970 835.671997,1066.193970 1146.254395,1066.193970 
	C1145.246216,1064.036377 1144.744385,1062.726807 1144.055664,1061.524414 
	C1135.564209,1046.701782 1127.084717,1031.872192 1118.526855,1017.087952 
	C1091.772095,970.867554 1064.924072,924.700867 1038.226196,878.447632 
	C1006.559570,823.586365 975.062317,768.627380 943.396545,713.765686 
	C915.042480,664.641418 886.507568,615.621521 858.147095,566.500916 
	C828.129272,514.509888 798.263855,462.430725 768.257385,410.433044 
	C734.932983,352.686127 701.523621,294.988281 668.152832,237.268158 
	C646.653503,200.081863 625.133667,162.907425 603.697449,125.684784 
	C601.683472,122.187744 600.383850,122.024879 598.327271,125.630577 
	C590.438904,139.460892 582.385010,153.196686 574.420410,166.983643 
	C550.029785,209.204453 525.660400,251.437531 501.266602,293.656525 
	C476.953583,335.735870 452.586792,377.784210 428.306458,419.882385 
	C402.373169,464.846558 376.555847,509.877686 350.609039,554.834106 
	C326.900146,595.912964 303.058624,636.915222 279.325592,677.980225 
	C254.927673,720.195618 230.603241,762.453491 206.222458,804.678894 
	C185.819473,840.015137 165.383911,875.332581 144.958755,910.655945 
	C118.058800,957.176941 91.146614,1003.690918 64.265213,1050.222656 
	C61.418030,1055.151123 58.742027,1060.178589 55.414722,1066.194092 
	C109.656357,1066.194092 162.578156,1066.194092 216.499969,1066.193970 
z"/>
<path fill="#FB904E" opacity="1.000000" stroke="none" 
	d="
M215.999969,1066.194092 
	C162.578156,1066.194092 109.656357,1066.194092 55.414722,1066.194092 
	C58.742027,1060.178589 61.418030,1055.151123 64.265213,1050.222656 
	C91.146614,1003.690918 118.058800,957.176941 144.958755,910.655945 
	C165.383911,875.332581 185.819473,840.015137 206.222458,804.678894 
	C230.603241,762.453491 254.927673,720.195618 279.325592,677.980225 
	C303.058624,636.915222 326.900146,595.912964 350.609039,554.834106 
	C376.555847,509.877686 402.373169,464.846558 428.306458,419.882385 
	C452.586792,377.784210 476.953583,335.735870 501.266602,293.656525 
	C525.660400,251.437531 550.029785,209.204453 574.420410,166.983643 
	C582.385010,153.196686 590.438904,139.460892 598.327271,125.630577 
	C600.383850,122.024879 601.683472,122.187744 603.697449,125.684784 
	C625.133667,162.907425 646.653503,200.081863 668.152832,237.268158 
	C701.523621,294.988281 734.932983,352.686127 768.257385,410.433044 
	C798.263855,462.430725 828.129272,514.509888 858.147095,566.500916 
	C886.507568,615.621521 915.042480,664.641418 943.396545,713.765686 
	C975.062317,768.627380 1006.559570,823.586365 1038.226196,878.447632 
	C1064.924072,924.700867 1091.772095,970.867554 1118.526855,1017.087952 
	C1127.084717,1031.872192 1135.564209,1046.701782 1144.055664,1061.524414 
	C1144.744385,1062.726807 1145.246216,1064.036377 1146.254395,1066.193970 
	C835.671997,1066.193970 526.085999,1066.193970 215.999969,1066.194092 
M768.433289,593.997314 
	C768.544006,594.712341 768.654724,595.427429 769.005554,596.673889 
	C769.282227,597.185181 769.558960,597.696533 769.865479,598.898987 
	C770.866943,600.297424 771.868347,601.695801 773.207886,603.547546 
	C773.368286,603.887756 773.528625,604.227905 773.504089,605.240295 
	C774.838806,608.855042 776.521545,610.277832 779.681824,605.842651 
	C781.002258,605.072205 782.322693,604.301697 784.297119,603.684814 
	C785.267273,602.908752 786.237366,602.132751 787.725525,601.135071 
	C788.081665,601.016235 788.437805,600.897400 789.433472,600.859009 
	C789.981384,600.275330 790.529297,599.691589 791.571289,598.851257 
	C791.922180,598.731201 792.273132,598.611145 793.269104,598.657837 
	C794.239868,597.874329 795.210571,597.090820 796.678345,596.076294 
	C797.010010,595.922974 797.341736,595.769592 798.562256,595.753723 
	C799.760803,595.785828 800.959290,595.817871 802.361023,596.226196 
	C802.361023,596.226196 802.505310,596.628601 802.330505,597.272034 
	C803.076477,598.258728 803.822388,599.245422 804.635803,600.743164 
	C804.614990,601.085571 804.594238,601.427917 803.948914,601.994446 
	C802.743713,604.424866 801.538452,606.855225 800.194397,609.826233 
	C800.062683,610.173889 799.931030,610.521545 799.189026,611.044128 
	C798.852539,611.754517 798.515991,612.464844 798.013245,613.719971 
	C797.887390,614.078003 797.761536,614.436096 797.012756,615.034912 
	C795.546692,618.163269 794.080627,621.291565 792.270630,625.011658 
	C791.435486,626.625244 790.600342,628.238831 789.231995,629.939819 
	C789.432800,630.663513 789.633606,631.387207 790.114197,632.591248 
	C790.244812,632.937622 790.375488,633.283997 790.331604,634.285278 
	C791.118408,635.252319 791.905212,636.219360 792.911316,637.701965 
	C793.025208,638.057556 793.139099,638.413086 793.199768,639.497253 
	C794.818542,641.525452 796.437317,643.553589 798.056091,645.581787 
	C799.517639,643.387878 801.009705,641.213013 802.407715,638.979431 
	C802.616028,638.646545 802.382385,638.036987 802.521179,636.932556 
	C802.733337,636.323914 802.945435,635.715271 803.826660,634.912720 
	C804.339111,633.467590 804.851624,632.022522 805.601196,630.069702 
	C805.824036,629.770630 806.046936,629.471558 806.911194,628.957520 
	C807.815186,626.866394 808.719238,624.775208 809.767700,622.072632 
	C810.093506,621.309326 810.419312,620.546021 811.430481,619.634216 
	C813.696960,617.340332 815.963440,615.046448 818.767395,612.916016 
	C819.118591,613.045654 819.469788,613.175293 820.008362,613.874207 
	C821.336365,614.306030 822.664368,614.737854 824.900024,615.262512 
	C827.940430,615.258118 830.980774,615.253723 834.509216,615.580688 
	C835.740967,614.836731 836.972778,614.092834 838.726624,613.131531 
	C839.086731,613.019775 839.446777,612.908081 840.456665,612.854065 
	C841.365417,611.998901 842.274109,611.143677 843.645203,609.808228 
	C845.206970,607.935730 846.768738,606.063232 848.972778,603.911621 
	C849.434143,602.466125 849.895447,601.020630 850.435303,598.759583 
	C850.436829,596.299866 850.438416,593.840210 850.739807,590.668396 
	C850.016418,589.018860 849.292969,587.369324 848.401184,585.152344 
	C848.333984,584.763733 848.266724,584.375061 848.492432,583.499329 
	C847.724487,582.291809 846.956604,581.084290 845.976868,579.356934 
	C845.874451,578.997253 845.772095,578.637512 845.785156,577.634033 
	C845.230713,577.060425 844.676270,576.486755 843.848633,575.428955 
	C843.717163,575.082703 843.585693,574.736450 843.606812,573.682007 
	C841.917236,571.031372 840.227661,568.380676 838.182068,565.175293 
	C837.593811,564.250732 837.005615,563.326172 836.575256,561.768677 
	C836.083679,561.153625 835.592041,560.538574 834.704895,559.545532 
	C834.426636,559.076172 834.148376,558.606750 833.866272,557.527954 
	C832.846252,557.571411 831.826172,557.614929 830.298950,557.885559 
	C829.953979,558.020691 829.609009,558.155884 828.632629,558.243774 
	C828.073425,558.808533 827.514282,559.373291 826.352539,560.206543 
	C825.025757,560.972900 823.698975,561.739258 821.718506,562.330444 
	C820.750366,563.117554 819.782288,563.904602 818.299133,564.909180 
	C817.945129,565.025940 817.591187,565.142639 816.605713,565.166504 
	C815.644104,565.919495 814.682434,566.672485 813.148376,567.755493 
	C812.227966,568.352112 811.307556,568.948792 809.757324,569.374878 
	C809.124756,569.851929 808.492249,570.328979 807.883057,570.867737 
	C807.883057,570.867737 807.821106,570.845093 807.096191,570.883423 
	C803.333374,573.157410 799.570557,575.431458 795.783997,577.764832 
	C795.783997,577.764832 795.723267,577.784729 795.039734,577.819031 
	C793.649963,578.816711 792.260193,579.814392 790.424377,581.153198 
	C790.091309,581.322510 789.758240,581.491760 788.768005,581.464050 
	C787.800964,582.242737 786.833984,583.021484 785.363281,584.034851 
	C785.009155,584.143066 784.655029,584.251343 783.659546,584.247925 
	C782.694763,585.020569 781.730042,585.793152 780.176453,586.861755 
	C779.262573,587.465637 778.348694,588.069519 776.776978,588.479065 
	C775.798523,589.239075 774.820068,589.999084 773.365295,591.038025 
	C773.022217,591.170044 772.679138,591.302002 771.653931,591.294617 
	C770.754272,592.179260 769.854614,593.063904 768.997559,593.995850 
	C768.997559,593.995850 768.947632,593.956970 768.433289,593.997314 
M966.884460,964.658569 
	C966.357178,963.624878 965.875183,962.565063 965.296143,961.561218 
	C931.652771,903.236084 897.999207,844.916748 864.351196,786.594299 
	C836.340759,738.043518 808.338318,689.488281 780.328003,640.937439 
	C748.336914,585.486633 716.366821,530.023621 684.339050,474.593994 
	C657.456299,428.068726 630.508789,381.580841 603.550659,335.099213 
	C602.950256,334.063965 601.877625,333.302643 601.025269,332.413513 
	C600.163025,333.287262 599.067871,334.026276 598.472961,335.054657 
	C586.264587,356.160400 574.144043,377.316895 561.944763,398.427917 
	C530.166626,453.420563 498.352875,508.392670 466.565186,563.379822 
	C441.084717,607.456604 415.610382,651.536926 390.154327,695.627808 
	C367.680023,734.554077 345.237274,773.498596 322.776062,812.432495 
	C298.244141,854.955627 273.709930,897.477417 249.170029,939.996033 
	C243.532852,949.763123 237.876114,959.518982 232.211868,969.270386 
	C230.228760,972.684387 231.260681,974.245544 235.119995,974.165894 
	C236.119598,974.145203 237.119919,974.159180 238.119919,974.159180 
	C479.452637,974.158630 720.785400,974.157959 962.118103,974.158386 
	C972.250977,974.158447 972.250977,974.163147 966.884460,964.658569 
M674.395813,1029.994507 
	C674.252991,1029.693237 674.069824,1029.404419 673.973145,1029.088989 
	C669.596619,1014.810547 665.173218,1000.545898 660.900208,986.236389 
	C659.949707,983.053528 658.267517,981.440979 654.865051,981.542053 
	C650.869141,981.660767 646.853210,981.781128 642.871460,981.516541 
	C638.518311,981.227234 637.083618,982.874023 637.125671,987.267639 
	C637.318604,1007.429321 637.148987,1027.594116 637.238953,1047.757202 
	C637.284058,1057.868530 635.349182,1056.776123 646.528076,1057.127930 
	C650.841797,1057.263672 651.862366,1055.724976 651.771667,1051.683228 
	C651.450317,1037.358765 651.436829,1023.026917 651.362366,1008.697510 
	C651.353882,1007.061462 651.696899,1005.423645 651.876953,1003.786621 
	C657.314453,1017.871460 661.845581,1031.854370 665.804260,1045.997681 
	C668.962830,1057.282104 669.202454,1057.888550 680.784912,1056.882324 
	C682.341309,1056.747192 684.543762,1054.958374 685.066895,1053.455078 
	C689.374390,1041.077026 693.304016,1028.568359 697.462402,1016.137329 
	C699.027344,1011.458984 700.893188,1006.881348 702.621887,1002.257812 
	C703.725037,1003.565735 703.860535,1004.542969 703.847107,1005.518066 
	C703.634399,1021.009460 703.352844,1036.500244 703.250610,1051.992310 
	C703.240112,1053.581543 704.123413,1056.468628 704.852905,1056.555054 
	C708.781921,1057.021484 712.802917,1056.931641 716.766235,1056.657593 
	C717.373901,1056.615601 718.308899,1054.619141 718.313110,1053.523804 
	C718.399658,1030.861084 718.357971,1008.197937 718.389465,985.534912 
	C718.393311,982.776306 717.132935,981.588379 714.456848,981.598755 
	C709.624573,981.617554 704.741882,981.181824 699.984497,981.774170 
	C698.094482,982.009460 695.532715,984.146423 694.895813,985.980042 
	C690.376953,998.989441 686.332703,1012.162903 682.011353,1025.242432 
	C680.751465,1029.055786 679.082825,1032.734131 677.601501,1036.474487 
	C677.093262,1036.311035 676.585022,1036.147705 676.076782,1035.984375 
	C675.618225,1034.235718 675.159729,1032.486938 674.395813,1029.994507 
M313.558350,665.898254 
	C329.161530,674.972778 344.801605,683.984680 360.355164,693.143433 
	C371.143097,699.495911 369.013672,699.300232 374.419525,689.660767 
	C379.650391,680.333374 384.812256,670.772278 388.311920,660.724426 
	C391.735626,650.894592 384.070129,638.999023 373.762573,637.130737 
	C368.609100,636.196655 363.034546,637.585754 357.141388,637.955994 
	C357.172211,638.122620 356.926666,637.044006 356.777924,635.952271 
	C355.161774,624.090820 340.904938,616.808899 330.716217,622.965454 
	C327.536285,624.886902 324.641937,627.763489 322.500183,630.821472 
	C317.855011,637.453796 313.724396,644.451416 309.485443,651.362305 
	C304.159760,660.044983 304.203796,660.072021 313.558350,665.898254 
M529.373657,1033.547241 
	C529.373474,1037.546631 529.373291,1041.546143 529.373230,1045.545532 
	C529.372864,1057.230957 529.373169,1057.086670 541.046814,1057.113281 
	C544.760498,1057.121826 545.906799,1056.038574 545.874817,1052.279419 
	C545.704468,1032.283936 545.855896,1012.286072 545.769470,992.289490 
	C545.716797,980.107117 547.611938,981.800293 534.760437,981.525269 
	C530.606812,981.436340 529.162659,983.104187 529.305969,987.181335 
	C529.539856,993.838684 529.285950,1000.511719 529.400391,1007.175354 
	C529.452148,1010.185974 528.274048,1011.317749 525.257751,1011.258118 
	C518.261597,1011.119751 511.256775,1011.075989 504.263550,1011.276794 
	C500.864166,1011.374329 499.917633,1009.940186 500.008759,1006.829895 
	C500.155090,1001.835022 500.093475,996.831970 500.033508,991.833496 
	C499.899567,980.671570 501.852661,981.772156 489.501373,981.505493 
	C484.927155,981.406738 483.461334,982.918152 483.519073,987.559204 
	C483.757507,1006.720032 483.623596,1025.885498 483.625153,1045.049194 
	C483.626160,1057.781860 483.620483,1057.681885 496.211609,1057.095459 
	C499.356415,1056.948975 500.149689,1055.711426 500.094879,1052.822754 
	C499.952606,1045.326416 500.288757,1037.814819 499.951538,1030.331055 
	C499.737885,1025.589966 501.525543,1024.167358 506.047668,1024.458984 
	C511.192139,1024.790649 516.374451,1024.538208 521.540344,1024.535522 
	C529.390869,1024.531616 529.390869,1024.530151 529.373657,1033.547241 
M294.919556,677.437988 
	C292.860016,680.612244 290.819824,683.799255 288.734467,686.956421 
	C287.181915,689.307068 287.813293,690.874695 290.211639,692.194641 
	C294.421783,694.511536 298.561005,696.960266 302.690979,699.419128 
	C311.947693,704.930603 321.403931,710.147705 330.352203,716.123657 
	C337.491150,720.891357 338.284241,727.357422 333.761353,734.825989 
	C329.028809,742.640747 322.995544,744.932190 315.337402,740.836914 
	C303.946594,734.745605 292.822357,728.149475 281.661957,721.635681 
	C272.020050,716.008301 272.274872,716.061218 266.163513,725.467041 
	C263.801666,729.102051 264.991028,730.830139 267.985962,732.575317 
	C280.300751,739.751221 292.544647,747.053284 304.965027,754.041565 
	C312.715363,758.402283 320.886169,760.854736 329.702454,756.872314 
	C337.010620,753.571167 341.913177,747.760986 345.793396,741.060669 
	C355.769867,723.833252 351.473785,708.835266 334.066254,699.123901 
	C327.988800,695.733459 322.078857,692.043823 316.023712,688.611938 
	C309.265076,684.781433 302.428375,681.088684 294.919556,677.437988 
M576.232727,1045.791382 
	C576.568726,1040.148926 579.850708,1038.794556 585.004517,1039.145264 
	C590.471069,1039.516968 596.001160,1038.953125 601.468140,1039.322144 
	C603.134644,1039.434692 605.437012,1040.925537 606.138977,1042.405884 
	C607.901855,1046.123535 608.829956,1050.228394 610.288147,1054.104614 
	C610.693909,1055.183350 611.741028,1056.776001 612.562622,1056.818848 
	C617.458130,1057.074707 622.373718,1056.945435 628.160767,1056.945435 
	C626.525574,1052.112549 625.264404,1048.238403 623.906860,1044.398193 
	C617.940247,1027.519653 612.054016,1010.611450 605.928284,993.790588 
	C600.721802,979.493774 604.482788,981.190430 589.211853,981.132385 
	C581.766724,981.104126 581.774658,981.399353 579.300720,988.690247 
	C574.242920,1003.596375 568.853882,1018.390015 563.633789,1033.241455 
	C560.966370,1040.830444 558.369080,1048.444214 555.554382,1056.583740 
	C557.621216,1056.770630 559.051331,1056.987915 560.485046,1057.015869 
	C572.119751,1057.242798 572.119934,1057.231934 576.232727,1045.791382 
M288.473358,781.799316 
	C288.212311,776.246216 289.552368,769.961975 287.409119,765.268372 
	C278.776978,746.364319 257.211456,744.860107 245.488571,761.967102 
	C241.088577,768.387939 237.700165,775.502686 233.289673,781.915222 
	C230.575195,785.861877 231.224686,787.769653 235.173859,790.026001 
	C252.026398,799.654663 268.725281,809.551697 285.530487,819.263794 
	C296.416870,825.555359 296.390137,825.455322 302.083588,814.009521 
	C303.259338,811.645935 302.898743,810.590698 300.594910,809.346252 
	C295.194611,806.429199 289.992523,803.147766 284.658478,800.104370 
	C282.164032,798.681213 280.779602,797.137085 282.420593,794.108765 
	C284.470520,790.325867 286.263947,786.404053 288.473358,781.799316 
M793.164856,510.749695 
	C776.115967,520.684326 759.108154,530.690857 741.972778,540.473877 
	C739.478760,541.897766 738.808105,543.397095 740.077942,545.609436 
	C746.267944,556.393372 752.525391,567.140015 758.942566,577.789246 
	C759.438599,578.612549 761.686951,579.255493 762.544739,578.827454 
	C765.575073,577.315796 768.354553,575.301453 771.490051,573.312256 
	C767.536194,566.561523 763.856567,560.283875 760.182251,554.003113 
	C758.620300,551.333130 758.346313,549.226074 761.837891,547.609985 
	C765.130432,546.086060 768.157593,543.975098 771.254822,542.047363 
	C773.512451,540.642151 775.063354,540.712891 776.441589,543.384338 
	C778.492615,547.359619 780.981934,551.105896 783.182434,555.007324 
	C787.312073,562.328735 787.189636,562.180603 794.512329,558.105957 
	C798.013855,556.157593 798.670410,554.354187 796.191833,551.097534 
	C794.500793,548.875610 793.391602,546.215515 791.976746,543.777710 
	C784.750000,531.326416 785.040588,534.639526 795.787903,527.850159 
	C799.238586,525.670288 801.032166,526.458374 802.844727,529.875427 
	C805.640381,535.145935 809.037476,540.098083 811.817871,545.375732 
	C813.421692,548.420044 815.077209,548.747681 817.699341,546.877380 
	C818.907898,546.015320 820.249939,545.320618 821.586487,544.661804 
	C824.681885,543.135925 824.957214,541.277039 823.128906,538.302490 
	C818.530212,530.820557 814.166565,523.190002 809.858521,515.534729 
	C803.989563,505.105835 804.049255,505.072266 793.164856,510.749695 
M930.355774,810.202515 
	C932.757141,814.073364 935.158569,817.944275 937.592407,821.867432 
	C940.172424,820.403931 941.950928,819.158203 943.906921,818.333435 
	C948.375061,816.449341 948.223999,813.775513 945.891113,810.174744 
	C943.100037,805.866638 940.761902,801.264099 937.949829,796.971008 
	C936.352051,794.531738 936.831360,792.437073 939.088867,791.633667 
	C943.173157,790.180237 945.863525,784.943604 951.153564,787.001709 
	C951.893555,787.289551 952.247375,788.612427 952.743896,789.476807 
	C955.632568,794.505615 958.330505,799.658447 961.502808,804.500854 
	C962.442871,805.935913 965.138428,807.666748 966.284241,807.243713 
	C969.426086,806.083374 972.171997,803.850647 975.320923,801.888916 
	C967.833008,789.131714 960.686646,776.956482 953.480347,764.679016 
	C950.307678,766.495117 948.149597,767.717529 946.003601,768.960938 
	C928.084106,779.343750 910.187500,789.766296 892.227600,800.078735 
	C889.368103,801.720642 888.523254,803.049866 890.510254,806.294434 
	C896.568787,816.187317 902.294495,826.288940 907.949585,836.420959 
	C909.488403,839.178040 911.261047,839.347595 913.668884,838.112732 
	C914.993835,837.433228 916.236389,836.595093 917.541931,835.875305 
	C920.568054,834.206787 921.365417,832.291992 919.265442,829.048523 
	C915.846802,823.768188 912.708313,818.283447 909.854675,812.679749 
	C909.277954,811.547180 909.954895,808.716980 910.977356,808.015686 
	C915.038452,805.229858 919.465576,802.977600 924.398804,800.161194 
	C926.348083,803.410828 928.187561,806.477417 930.355774,810.202515 
M821.045044,682.761841 
	C822.857178,682.520691 824.688660,682.377136 826.478394,682.023010 
	C842.113647,678.929138 857.749329,675.836182 873.368103,672.660889 
	C880.976440,671.113953 888.549194,669.392212 897.378601,667.481140 
	C894.599854,662.853394 892.347656,658.738220 889.664429,654.926575 
	C889.094971,654.117615 886.853333,653.975281 885.550720,654.270203 
	C869.692383,657.860779 853.870483,661.612427 838.023926,665.256042 
	C836.100769,665.698242 834.088379,665.753052 831.228271,666.093140 
	C832.179565,664.527893 832.421326,663.926514 832.832947,663.482666 
	C843.113220,652.396912 853.389648,641.307556 863.712830,630.261902 
	C872.692566,620.653748 871.457886,623.303040 865.543030,612.465088 
	C863.559509,608.830750 862.161804,609.140503 859.789124,611.862915 
	C844.287781,629.649536 828.702576,647.363281 813.243225,665.186218 
	C812.286316,666.289429 811.289307,668.609741 811.803589,669.525696 
	C814.348511,674.057922 817.395691,678.308228 821.045044,682.761841 
M727.300049,498.962769 
	C725.529175,492.828125 723.758240,486.693481 721.712891,479.607971 
	C717.942322,481.809845 714.232666,483.838989 710.709900,486.152802 
	C710.031860,486.598145 709.675781,488.242706 709.867126,489.194122 
	C712.038025,499.991394 716.254333,509.762238 724.626465,517.312927 
	C731.293457,523.325745 738.908325,525.131470 747.161377,521.322327 
	C754.979004,517.714172 759.701111,511.617310 759.642944,502.593475 
	C759.598999,495.772552 759.460693,488.951935 759.321716,482.132080 
	C759.241089,478.178619 760.911499,475.219025 764.675781,474.089355 
	C768.798584,472.852051 771.923828,474.959686 773.689819,478.513733 
	C775.518372,482.193665 777.693970,486.087006 778.030212,490.030884 
	C778.517212,495.744049 781.069641,496.687805 785.809448,495.607666 
	C786.933289,495.351593 788.434204,495.807739 789.218262,495.216125 
	C790.513733,494.238617 792.435974,492.483002 792.239136,491.389130 
	C790.549255,482.000427 787.671082,473.032349 780.971863,465.806824 
	C770.137878,454.121674 752.329895,456.602386 746.120422,471.247375 
	C744.089661,476.036865 744.511169,481.952850 744.243469,487.374969 
	C744.039307,491.508179 745.236938,495.818329 744.448303,499.778412 
	C743.890503,502.579224 741.568970,505.786102 739.106140,507.259705 
	C735.979675,509.130524 732.665649,507.267578 730.505188,504.270355 
	C729.449646,502.805939 728.616028,501.181549 727.300049,498.962769 
M401.823669,523.649414 
	C407.381042,533.099854 416.015228,538.901917 425.711060,543.189392 
	C434.953247,547.276184 444.589111,548.942932 454.152557,544.281860 
	C467.155518,537.944458 472.065002,525.781250 475.762024,512.942444 
	C476.053192,511.931305 475.511475,510.044952 474.708252,509.467468 
	C471.737152,507.331268 468.493835,505.573761 465.172058,503.564575 
	C463.014404,509.494598 461.422089,514.558777 459.347382,519.416931 
	C455.945404,527.382935 448.470032,532.271362 441.336578,530.776489 
	C430.980865,528.606323 421.904266,523.851746 415.467957,515.140137 
	C411.823639,510.207489 409.843658,504.481750 413.448090,498.882355 
	C416.345673,494.380981 420.144562,490.370514 423.999817,486.609985 
	C426.140442,484.521973 426.667664,483.065765 424.731995,480.802094 
	C423.436371,479.286926 422.205048,477.708771 421.046600,476.086212 
	C419.376831,473.747559 417.585449,472.974457 415.388977,475.399200 
	C411.170227,480.056335 406.169006,484.234131 402.921448,489.493256 
	C396.349396,500.136322 394.667908,511.511078 401.823669,523.649414 
M887.265747,740.696960 
	C890.930420,738.431946 894.424316,735.808960 898.289673,733.964417 
	C914.309021,726.319946 925.572693,733.950806 928.118652,747.885010 
	C929.983582,758.091797 930.268250,758.039612 940.323547,755.071655 
	C940.483154,755.024536 940.738037,755.043396 940.794922,754.943848 
	C941.554688,753.612610 943.103455,752.109314 942.881165,750.950867 
	C942.040894,746.571655 940.905090,742.200134 939.370911,738.012085 
	C934.182800,723.849182 920.962708,714.629456 906.869690,715.384277 
	C891.864319,716.187988 879.965088,723.372192 870.355042,734.431091 
	C865.393921,740.140259 862.968201,747.204773 863.832397,754.810059 
	C865.192932,766.783997 871.555847,776.230774 880.235901,784.185913 
	C881.324280,785.183411 883.774963,785.829041 885.020874,785.296265 
	C888.130188,783.966553 890.909180,781.864319 893.963623,779.984192 
	C890.466492,776.094788 887.113403,772.839905 884.314575,769.163208 
	C876.154907,758.444031 876.941162,750.430054 887.265747,740.696960 
M393.183624,611.396729 
	C381.255249,604.524414 369.219208,597.830872 357.429321,590.728638 
	C346.062500,583.881287 349.127228,584.930359 342.407684,595.159424 
	C340.723816,597.722717 340.861572,599.724304 344.143799,601.575073 
	C357.864258,609.311279 371.397308,617.380005 384.999176,625.326538 
	C391.682312,629.231079 398.365692,633.135132 405.421112,637.256836 
	C411.886169,626.119263 418.011292,615.519531 424.184631,604.947876 
	C428.978363,596.738831 428.969910,596.815857 421.043060,592.282349 
	C418.545380,590.853882 416.980621,590.831848 415.451752,593.661255 
	C412.773132,598.618469 409.726074,603.376404 406.838867,608.221069 
	C401.888367,616.527893 403.455231,617.818054 393.183624,611.396729 
M890.247559,682.807556 
	C875.660583,691.317200 861.144897,699.952393 846.463501,708.295837 
	C835.205566,714.693481 837.369995,713.034485 842.752075,723.142273 
	C844.757935,726.909424 846.807434,726.829712 849.877441,725.045898 
	C865.047546,716.231201 880.253235,707.477539 895.408203,698.636841 
	C900.469666,695.684326 905.417786,692.537659 910.598511,689.369141 
	C907.629456,684.477600 905.163330,680.414551 902.474976,675.985474 
	C898.364258,678.308533 894.643494,680.411255 890.247559,682.807556 
M371.960510,544.525391 
	C369.191162,547.843445 372.398560,548.998962 374.288147,550.107727 
	C391.276917,560.075928 408.348114,569.903625 425.388062,579.784729 
	C436.818085,586.412720 434.007568,587.510071 441.508820,575.302734 
	C443.070129,572.761841 442.805756,571.222107 440.088074,569.713074 
	C433.723541,566.178955 427.506989,562.379089 421.213837,558.715454 
	C407.094177,550.495605 392.964355,542.293274 378.397034,533.827087 
	C376.256958,537.419006 374.323822,540.663574 371.960510,544.525391 
z"/>
<path fill="#063B82" opacity="1.000000" stroke="none" 
	d="
M967.116577,964.944946 
	C972.250977,974.163147 972.250977,974.158447 962.118103,974.158386 
	C720.785400,974.157959 479.452637,974.158630 238.119919,974.159180 
	C237.119919,974.159180 236.119598,974.145203 235.119995,974.165894 
	C231.260681,974.245544 230.228760,972.684387 232.211868,969.270386 
	C237.876114,959.518982 243.532852,949.763123 249.170029,939.996033 
	C273.709930,897.477417 298.244141,854.955627 322.776062,812.432495 
	C345.237274,773.498596 367.680023,734.554077 390.154327,695.627808 
	C415.610382,651.536926 441.084717,607.456604 466.565186,563.379822 
	C498.352875,508.392670 530.166626,453.420563 561.944763,398.427917 
	C574.144043,377.316895 586.264587,356.160400 598.472961,335.054657 
	C599.067871,334.026276 600.163025,333.287262 601.025269,332.413513 
	C601.877625,333.302643 602.950256,334.063965 603.550659,335.099213 
	C630.508789,381.580841 657.456299,428.068726 684.339050,474.593994 
	C716.366821,530.023621 748.336914,585.486633 780.328003,640.937439 
	C808.338318,689.488281 836.340759,738.043518 864.351196,786.594299 
	C897.999207,844.916748 931.652771,903.236084 965.296143,961.561218 
	C965.875183,962.565063 966.357178,963.624878 967.116577,964.944946 
M582.499023,833.841614 
	C586.663757,833.841187 590.847595,833.590881 594.987976,833.908142 
	C599.450317,834.249939 600.988525,832.899292 600.952698,828.122925 
	C600.726379,797.971741 600.837891,767.817993 600.836609,737.665100 
	C600.835876,720.339661 600.754272,703.013672 600.892517,685.689331 
	C600.922974,681.874878 599.798828,680.243958 595.769714,680.426514 
	C589.950989,680.690125 584.111389,680.489929 578.280701,680.492310 
	C571.574707,680.494995 571.496948,680.497742 571.546936,687.057434 
	C571.802002,720.538391 572.109009,754.018982 572.358459,787.499939 
	C572.370300,789.091736 572.007202,790.686218 571.818726,792.279480 
	C567.928406,787.797302 565.266663,783.248474 562.618408,778.691772 
	C544.373596,747.299805 526.084656,715.933350 507.962830,684.470520 
	C506.185486,681.384705 504.059570,680.399414 500.733490,680.439758 
	C490.572968,680.563110 480.405914,680.655090 470.249878,680.409424 
	C465.838684,680.302734 464.489441,681.919128 464.498779,686.220276 
	C464.602448,733.864990 464.588440,781.510071 464.495270,829.154785 
	C464.488525,832.600525 465.558990,833.966675 469.044922,833.882690 
	C475.538116,833.726196 482.048431,833.617920 488.531189,833.923584 
	C492.816925,834.125549 493.906281,832.434021 493.845581,828.410645 
	C493.327972,794.102234 492.964142,759.791504 492.588654,725.481079 
	C492.572479,724.004150 492.891724,722.523560 493.204285,719.687683 
	C494.668701,721.716736 495.284027,722.428162 495.745087,723.228516 
	C516.356934,759.007202 536.920471,794.813843 557.668579,830.513306 
	C558.599976,832.115906 561.137146,833.570007 563.017517,833.692322 
	C569.155396,834.091736 575.335449,833.841675 582.499023,833.841614 
M694.668030,835.900513 
	C706.715027,836.413391 718.602051,835.438660 730.239319,832.102661 
	C742.814209,828.497986 742.815857,828.503784 742.815857,815.330505 
	C742.815857,810.791687 742.815857,806.252930 742.815857,801.301758 
	C740.925720,801.683411 740.303223,801.810364 739.680176,801.934753 
	C728.311462,804.204895 717.034363,807.371094 705.553528,808.543579 
	C686.296448,810.510254 671.833435,798.657471 667.929321,779.756592 
	C664.918640,765.181335 664.505554,750.710327 668.074097,736.239929 
	C672.878113,716.759705 686.289307,702.992554 708.885681,706.344849 
	C717.599548,707.637573 726.011963,711.216675 734.424072,714.149170 
	C737.317200,715.157654 738.808411,714.725464 739.870483,712.041992 
	C742.250061,706.029846 744.635254,700.020020 747.019043,694.009521 
	C748.351868,690.648499 747.884033,688.229614 743.891296,687.196838 
	C733.324402,684.463623 722.938477,680.267456 712.210449,679.067871 
	C683.617004,675.870483 654.978333,686.760620 641.149780,715.149841 
	C631.528381,734.902161 630.501282,755.742859 633.411743,777.027344 
	C634.815796,787.295227 637.748657,797.128784 643.005981,806.179443 
	C654.318420,825.653870 672.225464,833.808167 694.668030,835.900513 
z"/>
<path fill="#133F7F" opacity="1.000000" stroke="none" 
	d="
M674.548462,1030.366455 
	C675.159729,1032.486938 675.618225,1034.235718 676.076782,1035.984375 
	C676.585022,1036.147705 677.093262,1036.311035 677.601501,1036.474487 
	C679.082825,1032.734131 680.751465,1029.055786 682.011353,1025.242432 
	C686.332703,1012.162903 690.376953,998.989441 694.895813,985.980042 
	C695.532715,984.146423 698.094482,982.009460 699.984497,981.774170 
	C704.741882,981.181824 709.624573,981.617554 714.456848,981.598755 
	C717.132935,981.588379 718.393311,982.776306 718.389465,985.534912 
	C718.357971,1008.197937 718.399658,1030.861084 718.313110,1053.523804 
	C718.308899,1054.619141 717.373901,1056.615601 716.766235,1056.657593 
	C712.802917,1056.931641 708.781921,1057.021484 704.852905,1056.555054 
	C704.123413,1056.468628 703.240112,1053.581543 703.250610,1051.992310 
	C703.352844,1036.500244 703.634399,1021.009460 703.847107,1005.518066 
	C703.860535,1004.542969 703.725037,1003.565735 702.621887,1002.257812 
	C700.893188,1006.881348 699.027344,1011.458984 697.462402,1016.137329 
	C693.304016,1028.568359 689.374390,1041.077026 685.066895,1053.455078 
	C684.543762,1054.958374 682.341309,1056.747192 680.784912,1056.882324 
	C669.202454,1057.888550 668.962830,1057.282104 665.804260,1045.997681 
	C661.845581,1031.854370 657.314453,1017.871460 651.876953,1003.786621 
	C651.696899,1005.423645 651.353882,1007.061462 651.362366,1008.697510 
	C651.436829,1023.026917 651.450317,1037.358765 651.771667,1051.683228 
	C651.862366,1055.724976 650.841797,1057.263672 646.528076,1057.127930 
	C635.349182,1056.776123 637.284058,1057.868530 637.238953,1047.757202 
	C637.148987,1027.594116 637.318604,1007.429321 637.125671,987.267639 
	C637.083618,982.874023 638.518311,981.227234 642.871460,981.516541 
	C646.853210,981.781128 650.869141,981.660767 654.865051,981.542053 
	C658.267517,981.440979 659.949707,983.053528 660.900208,986.236389 
	C665.173218,1000.545898 669.596619,1014.810547 673.973145,1029.088989 
	C674.069824,1029.404419 674.252991,1029.693237 674.548462,1030.366455 
z"/>
<path fill="#103E7F" opacity="1.000000" stroke="none" 
	d="
M313.221313,665.750122 
	C304.203796,660.072021 304.159760,660.044983 309.485443,651.362305 
	C313.724396,644.451416 317.855011,637.453796 322.500183,630.821472 
	C324.641937,627.763489 327.536285,624.886902 330.716217,622.965454 
	C340.904938,616.808899 355.161774,624.090820 356.777924,635.952271 
	C356.926666,637.044006 357.172211,638.122620 357.141388,637.955994 
	C363.034546,637.585754 368.609100,636.196655 373.762573,637.130737 
	C384.070129,638.999023 391.735626,650.894592 388.311920,660.724426 
	C384.812256,670.772278 379.650391,680.333374 374.419525,689.660767 
	C369.013672,699.300232 371.143097,699.495911 360.355164,693.143433 
	C344.801605,683.984680 329.161530,674.972778 313.221313,665.750122 
M353.681610,660.176270 
	C352.264191,662.551392 350.846771,664.926514 349.071106,667.901978 
	C354.304230,671.015747 359.193756,674.027161 364.219849,676.790283 
	C364.869873,677.147705 366.807373,676.522888 367.160187,675.841309 
	C369.497223,671.326477 372.074829,666.830383 373.569489,662.016296 
	C374.938995,657.605164 372.006958,654.462280 368.249695,652.380371 
	C364.766418,650.450378 361.471130,651.027161 358.720764,653.823547 
	C356.992981,655.580200 355.544708,657.611877 353.681610,660.176270 
M333.507324,658.959045 
	C336.660980,661.808899 338.951721,661.321106 340.656738,657.335327 
	C342.017639,654.154114 343.769684,651.141724 345.175842,647.977844 
	C346.792206,644.341003 345.236267,641.589478 342.391937,639.309570 
	C338.996124,636.587646 335.385986,636.477173 332.685028,639.812927 
	C329.603882,643.618225 326.587402,647.770386 325.010590,652.284546 
	C324.633728,653.363403 330.076843,656.475098 333.507324,658.959045 
z"/>
<path fill="#123F7F" opacity="1.000000" stroke="none" 
	d="
M529.374146,1033.055908 
	C529.390869,1024.530151 529.390869,1024.531616 521.540344,1024.535522 
	C516.374451,1024.538208 511.192139,1024.790649 506.047668,1024.458984 
	C501.525543,1024.167358 499.737885,1025.589966 499.951538,1030.331055 
	C500.288757,1037.814819 499.952606,1045.326416 500.094879,1052.822754 
	C500.149689,1055.711426 499.356415,1056.948975 496.211609,1057.095459 
	C483.620483,1057.681885 483.626160,1057.781860 483.625153,1045.049194 
	C483.623596,1025.885498 483.757507,1006.720032 483.519073,987.559204 
	C483.461334,982.918152 484.927155,981.406738 489.501373,981.505493 
	C501.852661,981.772156 499.899567,980.671570 500.033508,991.833496 
	C500.093475,996.831970 500.155090,1001.835022 500.008759,1006.829895 
	C499.917633,1009.940186 500.864166,1011.374329 504.263550,1011.276794 
	C511.256775,1011.075989 518.261597,1011.119751 525.257751,1011.258118 
	C528.274048,1011.317749 529.452148,1010.185974 529.400391,1007.175354 
	C529.285950,1000.511719 529.539856,993.838684 529.305969,987.181335 
	C529.162659,983.104187 530.606812,981.436340 534.760437,981.525269 
	C547.611938,981.800293 545.716797,980.107117 545.769470,992.289490 
	C545.855896,1012.286072 545.704468,1032.283936 545.874817,1052.279419 
	C545.906799,1056.038574 544.760498,1057.121826 541.046814,1057.113281 
	C529.373169,1057.086670 529.372864,1057.230957 529.373230,1045.545532 
	C529.373291,1041.546143 529.373474,1037.546631 529.374146,1033.055908 
z"/>
<path fill="#113E7F" opacity="1.000000" stroke="none" 
	d="
M295.272614,677.386963 
	C302.428375,681.088684 309.265076,684.781433 316.023712,688.611938 
	C322.078857,692.043823 327.988800,695.733459 334.066254,699.123901 
	C351.473785,708.835266 355.769867,723.833252 345.793396,741.060669 
	C341.913177,747.760986 337.010620,753.571167 329.702454,756.872314 
	C320.886169,760.854736 312.715363,758.402283 304.965027,754.041565 
	C292.544647,747.053284 280.300751,739.751221 267.985962,732.575317 
	C264.991028,730.830139 263.801666,729.102051 266.163513,725.467041 
	C272.274872,716.061218 272.020050,716.008301 281.661957,721.635681 
	C292.822357,728.149475 303.946594,734.745605 315.337402,740.836914 
	C322.995544,744.932190 329.028809,742.640747 333.761353,734.825989 
	C338.284241,727.357422 337.491150,720.891357 330.352203,716.123657 
	C321.403931,710.147705 311.947693,704.930603 302.690979,699.419128 
	C298.561005,696.960266 294.421783,694.511536 290.211639,692.194641 
	C287.813293,690.874695 287.181915,689.307068 288.734467,686.956421 
	C290.819824,683.799255 292.860016,680.612244 295.272614,677.386963 
z"/>
<path fill="#103E7F" opacity="1.000000" stroke="none" 
	d="
M576.070312,1046.162354 
	C572.119934,1057.231934 572.119751,1057.242798 560.485046,1057.015869 
	C559.051331,1056.987915 557.621216,1056.770630 555.554382,1056.583740 
	C558.369080,1048.444214 560.966370,1040.830444 563.633789,1033.241455 
	C568.853882,1018.390015 574.242920,1003.596375 579.300720,988.690247 
	C581.774658,981.399353 581.766724,981.104126 589.211853,981.132385 
	C604.482788,981.190430 600.721802,979.493774 605.928284,993.790588 
	C612.054016,1010.611450 617.940247,1027.519653 623.906860,1044.398193 
	C625.264404,1048.238403 626.525574,1052.112549 628.160767,1056.945435 
	C622.373718,1056.945435 617.458130,1057.074707 612.562622,1056.818848 
	C611.741028,1056.776001 610.693909,1055.183350 610.288147,1054.104614 
	C608.829956,1050.228394 607.901855,1046.123535 606.138977,1042.405884 
	C605.437012,1040.925537 603.134644,1039.434692 601.468140,1039.322144 
	C596.001160,1038.953125 590.471069,1039.516968 585.004517,1039.145264 
	C579.850708,1038.794556 576.568726,1040.148926 576.070312,1046.162354 
M584.495056,1016.948608 
	C583.839111,1019.599365 583.183167,1022.250122 582.305237,1025.798218 
	C585.441040,1025.798218 588.035034,1025.798340 590.629089,1025.798096 
	C601.259338,1025.796997 601.258911,1025.797119 598.751709,1015.838867 
	C598.670837,1015.517700 598.643494,1015.181396 598.545166,1014.866577 
	C596.622009,1008.708801 594.692078,1002.553162 592.763489,996.397095 
	C592.254517,996.354187 591.745544,996.311218 591.236572,996.268311 
	C589.069580,1002.908447 586.902527,1009.548645 584.495056,1016.948608 
z"/>
<path fill="#0E3D80" opacity="1.000000" stroke="none" 
	d="
M772.335999,591.433960 
	C772.679138,591.302002 773.022217,591.170044 773.914978,590.922119 
	C775.454712,590.095276 776.444763,589.384277 777.434814,588.673340 
	C778.348694,588.069519 779.262573,587.465637 780.792786,586.787903 
	C782.373047,585.929260 783.336975,585.144409 784.300903,584.359619 
	C784.655029,584.251343 785.009155,584.143066 785.927979,583.952759 
	C787.470093,583.134155 788.447632,582.397583 789.425171,581.661011 
	C789.758240,581.491760 790.091309,581.322510 790.991455,580.979797 
	C792.946777,579.799194 794.335022,578.791992 795.723267,577.784790 
	C795.723267,577.784729 795.783997,577.764832 796.161560,577.750854 
	C800.299744,575.439575 804.060425,573.142334 807.821106,570.845093 
	C807.821106,570.845093 807.883057,570.867737 808.171631,570.861816 
	C809.102478,570.419006 809.744812,569.982178 810.387207,569.545410 
	C811.307556,568.948792 812.227966,568.352112 813.756592,567.669922 
	C815.322266,566.809387 816.279724,566.034363 817.237183,565.259338 
	C817.591187,565.142639 817.945129,565.025940 818.873047,564.851440 
	C820.421997,564.031006 821.397095,563.268311 822.372192,562.505615 
	C823.698975,561.739258 825.025757,560.972900 826.972412,560.106323 
	C828.149475,559.434448 828.706726,558.862732 829.264038,558.291016 
	C829.609009,558.155884 829.953979,558.020691 830.929688,557.865356 
	C832.330261,557.942566 833.100220,558.039978 833.870117,558.137390 
	C834.148376,558.606750 834.426636,559.076172 834.894897,560.030396 
	C835.529053,561.143982 835.973206,561.772766 836.417358,562.401611 
	C837.005615,563.326172 837.593811,564.250732 838.295227,565.801392 
	C840.090332,569.081665 841.772278,571.735901 843.454163,574.390198 
	C843.585693,574.736450 843.717163,575.082703 843.968872,575.976379 
	C844.615967,577.108521 845.142822,577.693176 845.669678,578.277832 
	C845.772095,578.637512 845.874451,578.997253 846.027954,579.957458 
	C846.785828,581.700806 847.492676,582.843628 848.199524,583.986450 
	C848.266724,584.375061 848.333984,584.763733 848.392761,585.778625 
	C849.069519,588.063416 849.754761,589.721985 850.439941,591.380493 
	C850.438416,593.840210 850.436829,596.299866 850.129272,599.354614 
	C849.325623,601.363342 848.828064,602.777039 848.330444,604.190735 
	C846.768738,606.063232 845.206970,607.935730 843.088196,610.040039 
	C841.623047,611.113403 840.714966,611.954834 839.806824,612.796387 
	C839.446777,612.908081 839.086731,613.019775 838.122925,613.174561 
	C836.353210,613.894897 835.187195,614.572144 834.021179,615.249390 
	C830.980774,615.253723 827.940430,615.258118 824.240845,614.938110 
	C822.328125,614.177490 821.074524,613.741211 819.820984,613.304932 
	C819.469788,613.175293 819.118591,613.045654 818.404907,612.542603 
	C816.636292,610.223267 815.176575,609.970337 814.021179,612.298096 
	C812.811768,614.734619 811.827637,617.283081 810.745117,619.782654 
	C810.419312,620.546021 810.093506,621.309326 809.383423,622.506470 
	C808.089417,625.017761 807.179626,627.095154 806.269836,629.172485 
	C806.046936,629.471558 805.824036,629.770630 805.239014,630.531372 
	C804.303772,632.364197 803.730652,633.735413 803.157593,635.106628 
	C802.945435,635.715271 802.733337,636.323914 802.138550,637.399048 
	C800.527832,639.662720 799.299683,641.459839 797.762817,643.708801 
	C795.988159,641.764771 794.620544,640.266724 793.253052,638.768677 
	C793.139099,638.413086 793.025208,638.057556 792.851868,637.129150 
	C792.030334,635.580994 791.268250,634.605652 790.506165,633.630371 
	C790.375488,633.283997 790.244812,632.937622 790.052856,631.975342 
	C789.916138,630.857056 789.840637,630.354736 789.765137,629.852417 
	C790.600342,628.238831 791.435486,626.625244 792.694031,624.508911 
	C794.623535,620.935547 796.129639,617.864868 797.635742,614.794189 
	C797.761536,614.436096 797.887390,614.078003 798.402954,613.359985 
	C799.128296,612.289734 799.463806,611.579407 799.799316,610.869141 
	C799.931030,610.521545 800.062683,610.173889 800.569092,609.416382 
	C802.153687,606.594482 803.363586,604.182434 804.573486,601.770325 
	C804.594238,601.427917 804.614990,601.085571 804.695496,600.179810 
	C804.005249,598.620544 803.255249,597.624573 802.505249,596.628601 
	C802.505310,596.628601 802.361023,596.226196 802.216187,595.686523 
	C800.605347,595.303284 799.139404,595.459778 797.673462,595.616211 
	C797.341736,595.769592 797.010010,595.922974 796.110657,596.131836 
	C794.570007,596.955261 793.597046,597.723206 792.624023,598.491089 
	C792.273132,598.611145 791.922180,598.731201 791.013672,598.968506 
	C789.901978,599.649963 789.347961,600.214233 788.793945,600.778503 
	C788.437805,600.897400 788.081665,601.016235 787.152527,601.192017 
	C785.600769,602.009766 784.622009,602.770508 783.643188,603.531250 
	C782.322693,604.301697 781.002258,605.072205 779.016479,605.941528 
	C776.797119,605.549622 775.243103,605.058899 773.689026,604.568115 
	C773.528625,604.227905 773.368286,603.887756 773.032837,602.976624 
	C771.850403,601.006409 770.843018,599.607178 769.835693,598.207886 
	C769.558960,597.696533 769.282227,597.185181 768.992310,596.052917 
	C768.968628,594.940308 768.958130,594.448608 768.947632,593.956970 
	C768.947632,593.956970 768.997559,593.995850 769.289673,593.944397 
	C770.499939,593.073303 771.417969,592.253662 772.335999,591.433960 
M829.301208,577.646606 
	C823.546875,580.687439 817.792603,583.728210 811.058655,587.286682 
	C814.989197,591.869873 817.817566,595.704529 821.198059,598.967163 
	C825.006714,602.643127 829.061523,600.595947 832.480347,598.066772 
	C835.675049,595.703491 837.007385,592.176453 835.376282,588.332092 
	C833.843933,584.720520 831.786255,581.331909 829.301208,577.646606 
z"/>
<path fill="#103E7F" opacity="1.000000" stroke="none" 
	d="
M288.320740,782.170776 
	C286.263947,786.404053 284.470520,790.325867 282.420593,794.108765 
	C280.779602,797.137085 282.164032,798.681213 284.658478,800.104370 
	C289.992523,803.147766 295.194611,806.429199 300.594910,809.346252 
	C302.898743,810.590698 303.259338,811.645935 302.083588,814.009521 
	C296.390137,825.455322 296.416870,825.555359 285.530487,819.263794 
	C268.725281,809.551697 252.026398,799.654663 235.173859,790.026001 
	C231.224686,787.769653 230.575195,785.861877 233.289673,781.915222 
	C237.700165,775.502686 241.088577,768.387939 245.488571,761.967102 
	C257.211456,744.860107 278.776978,746.364319 287.409119,765.268372 
	C289.552368,769.961975 288.212311,776.246216 288.320740,782.170776 
M274.527588,774.347595 
	C273.669769,772.950256 273.034515,771.332947 271.911987,770.197205 
	C268.666412,766.913086 264.060547,764.539978 260.308350,767.092773 
	C256.343414,769.790344 253.627670,774.519104 251.071365,778.783264 
	C250.822098,779.199036 255.481659,782.638977 257.949615,784.563599 
	C258.979614,785.366943 260.182373,786.019348 261.402466,786.494080 
	C264.201752,787.583313 266.560791,792.096008 269.773590,789.194092 
	C272.155579,787.042664 273.197174,783.265808 274.441284,780.059875 
	C275.004761,778.607849 274.610687,776.784241 274.527588,774.347595 
z"/>
<path fill="#113E7F" opacity="1.000000" stroke="none" 
	d="
M793.467773,510.539490 
	C804.049255,505.072266 803.989563,505.105835 809.858521,515.534729 
	C814.166565,523.190002 818.530212,530.820557 823.128906,538.302490 
	C824.957214,541.277039 824.681885,543.135925 821.586487,544.661804 
	C820.249939,545.320618 818.907898,546.015320 817.699341,546.877380 
	C815.077209,548.747681 813.421692,548.420044 811.817871,545.375732 
	C809.037476,540.098083 805.640381,535.145935 802.844727,529.875427 
	C801.032166,526.458374 799.238586,525.670288 795.787903,527.850159 
	C785.040588,534.639526 784.750000,531.326416 791.976746,543.777710 
	C793.391602,546.215515 794.500793,548.875610 796.191833,551.097534 
	C798.670410,554.354187 798.013855,556.157593 794.512329,558.105957 
	C787.189636,562.180603 787.312073,562.328735 783.182434,555.007324 
	C780.981934,551.105896 778.492615,547.359619 776.441589,543.384338 
	C775.063354,540.712891 773.512451,540.642151 771.254822,542.047363 
	C768.157593,543.975098 765.130432,546.086060 761.837891,547.609985 
	C758.346313,549.226074 758.620300,551.333130 760.182251,554.003113 
	C763.856567,560.283875 767.536194,566.561523 771.490051,573.312256 
	C768.354553,575.301453 765.575073,577.315796 762.544739,578.827454 
	C761.686951,579.255493 759.438599,578.612549 758.942566,577.789246 
	C752.525391,567.140015 746.267944,556.393372 740.077942,545.609436 
	C738.808105,543.397095 739.478760,541.897766 741.972778,540.473877 
	C759.108154,530.690857 776.115967,520.684326 793.467773,510.539490 
z"/>
<path fill="#113E7F" opacity="1.000000" stroke="none" 
	d="
M930.191406,809.873291 
	C928.187561,806.477417 926.348083,803.410828 924.398804,800.161194 
	C919.465576,802.977600 915.038452,805.229858 910.977356,808.015686 
	C909.954895,808.716980 909.277954,811.547180 909.854675,812.679749 
	C912.708313,818.283447 915.846802,823.768188 919.265442,829.048523 
	C921.365417,832.291992 920.568054,834.206787 917.541931,835.875305 
	C916.236389,836.595093 914.993835,837.433228 913.668884,838.112732 
	C911.261047,839.347595 909.488403,839.178040 907.949585,836.420959 
	C902.294495,826.288940 896.568787,816.187317 890.510254,806.294434 
	C888.523254,803.049866 889.368103,801.720642 892.227600,800.078735 
	C910.187500,789.766296 928.084106,779.343750 946.003601,768.960938 
	C948.149597,767.717529 950.307678,766.495117 953.480347,764.679016 
	C960.686646,776.956482 967.833008,789.131714 975.320923,801.888916 
	C972.171997,803.850647 969.426086,806.083374 966.284241,807.243713 
	C965.138428,807.666748 962.442871,805.935913 961.502808,804.500854 
	C958.330505,799.658447 955.632568,794.505615 952.743896,789.476807 
	C952.247375,788.612427 951.893555,787.289551 951.153564,787.001709 
	C945.863525,784.943604 943.173157,790.180237 939.088867,791.633667 
	C936.831360,792.437073 936.352051,794.531738 937.949829,796.971008 
	C940.761902,801.264099 943.100037,805.866638 945.891113,810.174744 
	C948.223999,813.775513 948.375061,816.449341 943.906921,818.333435 
	C941.950928,819.158203 940.172424,820.403931 937.592407,821.867432 
	C935.158569,817.944275 932.757141,814.073364 930.191406,809.873291 
z"/>
<path fill="#123E7F" opacity="1.000000" stroke="none" 
	d="
M820.655396,682.709839 
	C817.395691,678.308228 814.348511,674.057922 811.803589,669.525696 
	C811.289307,668.609741 812.286316,666.289429 813.243225,665.186218 
	C828.702576,647.363281 844.287781,629.649536 859.789124,611.862915 
	C862.161804,609.140503 863.559509,608.830750 865.543030,612.465088 
	C871.457886,623.303040 872.692566,620.653748 863.712830,630.261902 
	C853.389648,641.307556 843.113220,652.396912 832.832947,663.482666 
	C832.421326,663.926514 832.179565,664.527893 831.228271,666.093140 
	C834.088379,665.753052 836.100769,665.698242 838.023926,665.256042 
	C853.870483,661.612427 869.692383,657.860779 885.550720,654.270203 
	C886.853333,653.975281 889.094971,654.117615 889.664429,654.926575 
	C892.347656,658.738220 894.599854,662.853394 897.378601,667.481140 
	C888.549194,669.392212 880.976440,671.113953 873.368103,672.660889 
	C857.749329,675.836182 842.113647,678.929138 826.478394,682.023010 
	C824.688660,682.377136 822.857178,682.520691 820.655396,682.709839 
z"/>
<path fill="#113E7F" opacity="1.000000" stroke="none" 
	d="
M727.490967,499.296204 
	C728.616028,501.181549 729.449646,502.805939 730.505188,504.270355 
	C732.665649,507.267578 735.979675,509.130524 739.106140,507.259705 
	C741.568970,505.786102 743.890503,502.579224 744.448303,499.778412 
	C745.236938,495.818329 744.039307,491.508179 744.243469,487.374969 
	C744.511169,481.952850 744.089661,476.036865 746.120422,471.247375 
	C752.329895,456.602386 770.137878,454.121674 780.971863,465.806824 
	C787.671082,473.032349 790.549255,482.000427 792.239136,491.389130 
	C792.435974,492.483002 790.513733,494.238617 789.218262,495.216125 
	C788.434204,495.807739 786.933289,495.351593 785.809448,495.607666 
	C781.069641,496.687805 778.517212,495.744049 778.030212,490.030884 
	C777.693970,486.087006 775.518372,482.193665 773.689819,478.513733 
	C771.923828,474.959686 768.798584,472.852051 764.675781,474.089355 
	C760.911499,475.219025 759.241089,478.178619 759.321716,482.132080 
	C759.460693,488.951935 759.598999,495.772552 759.642944,502.593475 
	C759.701111,511.617310 754.979004,517.714172 747.161377,521.322327 
	C738.908325,525.131470 731.293457,523.325745 724.626465,517.312927 
	C716.254333,509.762238 712.038025,499.991394 709.867126,489.194122 
	C709.675781,488.242706 710.031860,486.598145 710.709900,486.152802 
	C714.232666,483.838989 717.942322,481.809845 721.712891,479.607971 
	C723.758240,486.693481 725.529175,492.828125 727.490967,499.296204 
z"/>
<path fill="#123F7F" opacity="1.000000" stroke="none" 
	d="
M401.680847,523.308167 
	C394.667908,511.511078 396.349396,500.136322 402.921448,489.493256 
	C406.169006,484.234131 411.170227,480.056335 415.388977,475.399200 
	C417.585449,472.974457 419.376831,473.747559 421.046600,476.086212 
	C422.205048,477.708771 423.436371,479.286926 424.731995,480.802094 
	C426.667664,483.065765 426.140442,484.521973 423.999817,486.609985 
	C420.144562,490.370514 416.345673,494.380981 413.448090,498.882355 
	C409.843658,504.481750 411.823639,510.207489 415.467957,515.140137 
	C421.904266,523.851746 430.980865,528.606323 441.336578,530.776489 
	C448.470032,532.271362 455.945404,527.382935 459.347382,519.416931 
	C461.422089,514.558777 463.014404,509.494598 465.172058,503.564575 
	C468.493835,505.573761 471.737152,507.331268 474.708252,509.467468 
	C475.511475,510.044952 476.053192,511.931305 475.762024,512.942444 
	C472.065002,525.781250 467.155518,537.944458 454.152557,544.281860 
	C444.589111,548.942932 434.953247,547.276184 425.711060,543.189392 
	C416.015228,538.901917 407.381042,533.099854 401.680847,523.308167 
z"/>
<path fill="#113E7F" opacity="1.000000" stroke="none" 
	d="
M886.998840,740.942139 
	C876.941162,750.430054 876.154907,758.444031 884.314575,769.163208 
	C887.113403,772.839905 890.466492,776.094788 893.963623,779.984192 
	C890.909180,781.864319 888.130188,783.966553 885.020874,785.296265 
	C883.774963,785.829041 881.324280,785.183411 880.235901,784.185913 
	C871.555847,776.230774 865.192932,766.783997 863.832397,754.810059 
	C862.968201,747.204773 865.393921,740.140259 870.355042,734.431091 
	C879.965088,723.372192 891.864319,716.187988 906.869690,715.384277 
	C920.962708,714.629456 934.182800,723.849182 939.370911,738.012085 
	C940.905090,742.200134 942.040894,746.571655 942.881165,750.950867 
	C943.103455,752.109314 941.554688,753.612610 940.794922,754.943848 
	C940.738037,755.043396 940.483154,755.024536 940.323547,755.071655 
	C930.268250,758.039612 929.983582,758.091797 928.118652,747.885010 
	C925.572693,733.950806 914.309021,726.319946 898.289673,733.964417 
	C894.424316,735.808960 890.930420,738.431946 886.998840,740.942139 
z"/>
<path fill="#113E7F" opacity="1.000000" stroke="none" 
	d="
M393.479431,611.626831 
	C403.455231,617.818054 401.888367,616.527893 406.838867,608.221069 
	C409.726074,603.376404 412.773132,598.618469 415.451752,593.661255 
	C416.980621,590.831848 418.545380,590.853882 421.043060,592.282349 
	C428.969910,596.815857 428.978363,596.738831 424.184631,604.947876 
	C418.011292,615.519531 411.886169,626.119263 405.421112,637.256836 
	C398.365692,633.135132 391.682312,629.231079 384.999176,625.326538 
	C371.397308,617.380005 357.864258,609.311279 344.143799,601.575073 
	C340.861572,599.724304 340.723816,597.722717 342.407684,595.159424 
	C349.127228,584.930359 346.062500,583.881287 357.429321,590.728638 
	C369.219208,597.830872 381.255249,604.524414 393.479431,611.626831 
z"/>
<path fill="#113E7F" opacity="1.000000" stroke="none" 
	d="
M890.585083,682.660767 
	C894.643494,680.411255 898.364258,678.308533 902.474976,675.985474 
	C905.163330,680.414551 907.629456,684.477600 910.598511,689.369141 
	C905.417786,692.537659 900.469666,695.684326 895.408203,698.636841 
	C880.253235,707.477539 865.047546,716.231201 849.877441,725.045898 
	C846.807434,726.829712 844.757935,726.909424 842.752075,723.142273 
	C837.369995,713.034485 835.205566,714.693481 846.463501,708.295837 
	C861.144897,699.952393 875.660583,691.317200 890.585083,682.660767 
z"/>
<path fill="#113E7F" opacity="1.000000" stroke="none" 
	d="
M372.175598,544.216736 
	C374.323822,540.663574 376.256958,537.419006 378.397034,533.827087 
	C392.964355,542.293274 407.094177,550.495605 421.213837,558.715454 
	C427.506989,562.379089 433.723541,566.178955 440.088074,569.713074 
	C442.805756,571.222107 443.070129,572.761841 441.508820,575.302734 
	C434.007568,587.510071 436.818085,586.412720 425.388062,579.784729 
	C408.348114,569.903625 391.276917,560.075928 374.288147,550.107727 
	C372.398560,548.998962 369.191162,547.843445 372.175598,544.216736 
z"/>
<path fill="#946C63" opacity="1.000000" stroke="none" 
	d="
M793.226379,639.132935 
	C794.620544,640.266724 795.988159,641.764771 797.762817,643.708801 
	C799.299683,641.459839 800.527832,639.662720 802.054565,637.710571 
	C802.382385,638.036987 802.616028,638.646545 802.407715,638.979431 
	C801.009705,641.213013 799.517639,643.387878 798.056091,645.581787 
	C796.437317,643.553589 794.818542,641.525452 793.226379,639.132935 
z"/>
<path fill="#946C63" opacity="1.000000" stroke="none" 
	d="
M807.458618,570.864258 
	C804.060425,573.142334 800.299744,575.439575 796.173462,577.721191 
	C799.570557,575.431458 803.333374,573.157410 807.458618,570.864258 
z"/>
<path fill="#946C63" opacity="1.000000" stroke="none" 
	d="
M811.087769,619.708435 
	C811.827637,617.283081 812.811768,614.734619 814.021179,612.298096 
	C815.176575,609.970337 816.636292,610.223267 818.136169,612.460938 
	C815.963440,615.046448 813.696960,617.340332 811.087769,619.708435 
z"/>
<path fill="#946C63" opacity="1.000000" stroke="none" 
	d="
M797.324219,614.914551 
	C796.129639,617.864868 794.623535,620.935547 792.865967,624.213074 
	C794.080627,621.291565 795.546692,618.163269 797.324219,614.914551 
z"/>
<path fill="#946C63" opacity="1.000000" stroke="none" 
	d="
M843.530518,574.036133 
	C841.772278,571.735901 840.090332,569.081665 838.473267,566.078735 
	C840.227661,568.380676 841.917236,571.031372 843.530518,574.036133 
z"/>
<path fill="#946C63" opacity="1.000000" stroke="none" 
	d="
M804.261230,601.882385 
	C803.363586,604.182434 802.153687,606.594482 800.638489,609.146118 
	C801.538452,606.855225 802.743713,604.424866 804.261230,601.882385 
z"/>
<path fill="#946C63" opacity="1.000000" stroke="none" 
	d="
M773.596558,604.904175 
	C775.243103,605.058899 776.797119,605.549622 778.720337,606.083862 
	C776.521545,610.277832 774.838806,608.855042 773.596558,604.904175 
z"/>
<path fill="#946C63" opacity="1.000000" stroke="none" 
	d="
M806.590515,629.065002 
	C807.179626,627.095154 808.089417,625.017761 809.311218,622.812256 
	C808.719238,624.775208 807.815186,626.866394 806.590515,629.065002 
z"/>
<path fill="#946C63" opacity="1.000000" stroke="none" 
	d="
M850.589844,591.024414 
	C849.754761,589.721985 849.069519,588.063416 848.476929,586.062317 
	C849.292969,587.369324 850.016418,589.018860 850.589844,591.024414 
z"/>
<path fill="#946C63" opacity="1.000000" stroke="none" 
	d="
M848.651611,604.051147 
	C848.828064,602.777039 849.325623,601.363342 850.089966,599.762451 
	C849.895447,601.020630 849.434143,602.466125 848.651611,604.051147 
z"/>
<path fill="#946C63" opacity="1.000000" stroke="none" 
	d="
M769.850586,598.553467 
	C770.843018,599.607178 771.850403,601.006409 772.863770,602.750000 
	C771.868347,601.695801 770.866943,600.297424 769.850586,598.553467 
z"/>
<path fill="#946C63" opacity="1.000000" stroke="none" 
	d="
M795.381470,577.801880 
	C794.335022,578.791992 792.946777,579.799194 791.214478,580.809204 
	C792.260193,579.814392 793.649963,578.816711 795.381470,577.801880 
z"/>
<path fill="#946C63" opacity="1.000000" stroke="none" 
	d="
M834.265198,615.415039 
	C835.187195,614.572144 836.353210,613.894897 837.861816,613.283325 
	C836.972778,614.092834 835.740967,614.836731 834.265198,615.415039 
z"/>
<path fill="#946C63" opacity="1.000000" stroke="none" 
	d="
M819.914673,613.589600 
	C821.074524,613.741211 822.328125,614.177490 823.786987,614.891724 
	C822.664368,614.737854 821.336365,614.306030 819.914673,613.589600 
z"/>
<path fill="#946C63" opacity="1.000000" stroke="none" 
	d="
M803.492126,635.009644 
	C803.730652,633.735413 804.303772,632.364197 805.120483,630.785156 
	C804.851624,632.022522 804.339111,633.467590 803.492126,635.009644 
z"/>
<path fill="#946C63" opacity="1.000000" stroke="none" 
	d="
M848.345947,583.742920 
	C847.492676,582.843628 846.785828,581.700806 846.133850,580.217407 
	C846.956604,581.084290 847.724487,582.291809 848.345947,583.742920 
z"/>
<path fill="#946C63" opacity="1.000000" stroke="none" 
	d="
M798.117859,595.684998 
	C799.139404,595.459778 800.605347,595.303284 802.114563,595.498413 
	C800.959290,595.817871 799.760803,595.785828 798.117859,595.684998 
z"/>
<path fill="#946C63" opacity="1.000000" stroke="none" 
	d="
M816.921448,565.212891 
	C816.279724,566.034363 815.322266,566.809387 814.042847,567.504944 
	C814.682434,566.672485 815.644104,565.919495 816.921448,565.212891 
z"/>
<path fill="#946C63" opacity="1.000000" stroke="none" 
	d="
M822.045349,562.418030 
	C821.397095,563.268311 820.421997,564.031006 819.130554,564.742676 
	C819.782288,563.904602 820.750366,563.117554 822.045349,562.418030 
z"/>
<path fill="#946C63" opacity="1.000000" stroke="none" 
	d="
M789.096558,581.562561 
	C788.447632,582.397583 787.470093,583.134155 786.179810,583.835449 
	C786.833984,583.021484 787.800964,582.242737 789.096558,581.562561 
z"/>
<path fill="#946C63" opacity="1.000000" stroke="none" 
	d="
M783.980225,584.303772 
	C783.336975,585.144409 782.373047,585.929260 781.087158,586.639893 
	C781.730042,585.793152 782.694763,585.020569 783.980225,584.303772 
z"/>
<path fill="#946C63" opacity="1.000000" stroke="none" 
	d="
M783.970154,603.608032 
	C784.622009,602.770508 785.600769,602.009766 786.893555,601.302856 
	C786.237366,602.132751 785.267273,602.908752 783.970154,603.608032 
z"/>
<path fill="#946C63" opacity="1.000000" stroke="none" 
	d="
M777.105896,588.576172 
	C776.444763,589.384277 775.454712,590.095276 774.153198,590.782715 
	C774.820068,589.999084 775.798523,589.239075 777.105896,588.576172 
z"/>
<path fill="#946C63" opacity="1.000000" stroke="none" 
	d="
M771.994995,591.364258 
	C771.417969,592.253662 770.499939,593.073303 769.268433,593.920776 
	C769.854614,593.063904 770.754272,592.179260 771.994995,591.364258 
z"/>
<path fill="#946C63" opacity="1.000000" stroke="none" 
	d="
M792.946533,598.574463 
	C793.597046,597.723206 794.570007,596.955261 795.862122,596.247314 
	C795.210571,597.090820 794.239868,597.874329 792.946533,598.574463 
z"/>
<path fill="#946C63" opacity="1.000000" stroke="none" 
	d="
M802.417847,596.950317 
	C803.255249,597.624573 804.005249,598.620544 804.661743,599.924316 
	C803.822388,599.245422 803.076477,598.258728 802.417847,596.950317 
z"/>
<path fill="#946C63" opacity="1.000000" stroke="none" 
	d="
M790.418884,633.957825 
	C791.268250,634.605652 792.030334,635.580994 792.742188,636.871399 
	C791.905212,636.219360 791.118408,635.252319 790.418884,633.957825 
z"/>
<path fill="#946C63" opacity="1.000000" stroke="none" 
	d="
M840.131714,612.825195 
	C840.714966,611.954834 841.623047,611.113403 842.857056,610.280212 
	C842.274109,611.143677 841.365417,611.998901 840.131714,612.825195 
z"/>
<path fill="#946C63" opacity="1.000000" stroke="none" 
	d="
M833.868164,557.832642 
	C833.100220,558.039978 832.330261,557.942566 831.183228,557.751831 
	C831.826172,557.614929 832.846252,557.571411 833.868164,557.832642 
z"/>
<path fill="#946C63" opacity="1.000000" stroke="none" 
	d="
M768.690430,593.977173 
	C768.958130,594.448608 768.968628,594.940308 768.872314,595.787231 
	C768.654724,595.427429 768.544006,594.712341 768.690430,593.977173 
z"/>
<path fill="#946C63" opacity="1.000000" stroke="none" 
	d="
M789.498535,629.896118 
	C789.840637,630.354736 789.916138,630.857056 789.913025,631.735107 
	C789.633606,631.387207 789.432800,630.663513 789.498535,629.896118 
z"/>
<path fill="#946C63" opacity="1.000000" stroke="none" 
	d="
M845.727417,577.955933 
	C845.142822,577.693176 844.615967,577.108521 844.105469,576.218445 
	C844.676270,576.486755 845.230713,577.060425 845.727417,577.955933 
z"/>
<path fill="#946C63" opacity="1.000000" stroke="none" 
	d="
M810.072266,569.460144 
	C809.744812,569.982178 809.102478,570.419006 808.159973,570.830933 
	C808.492249,570.328979 809.124756,569.851929 810.072266,569.460144 
z"/>
<path fill="#946C63" opacity="1.000000" stroke="none" 
	d="
M799.494141,610.956665 
	C799.463806,611.579407 799.128296,612.289734 798.486084,613.087646 
	C798.515991,612.464844 798.852539,611.754517 799.494141,610.956665 
z"/>
<path fill="#946C63" opacity="1.000000" stroke="none" 
	d="
M789.113708,600.818726 
	C789.347961,600.214233 789.901978,599.649963 790.766602,599.096802 
	C790.529297,599.691589 789.981384,600.275330 789.113708,600.818726 
z"/>
<path fill="#946C63" opacity="1.000000" stroke="none" 
	d="
M836.496338,562.085144 
	C835.973206,561.772766 835.529053,561.143982 835.092651,560.219360 
	C835.592041,560.538574 836.083679,561.153625 836.496338,562.085144 
z"/>
<path fill="#946C63" opacity="1.000000" stroke="none" 
	d="
M828.948364,558.267334 
	C828.706726,558.862732 828.149475,559.434448 827.273682,559.972168 
	C827.514282,559.373291 828.073425,558.808533 828.948364,558.267334 
z"/>
<path fill="#F88F4E" opacity="1.000000" stroke="none" 
	d="
M581.999146,833.841553 
	C575.335449,833.841675 569.155396,834.091736 563.017517,833.692322 
	C561.137146,833.570007 558.599976,832.115906 557.668579,830.513306 
	C536.920471,794.813843 516.356934,759.007202 495.745087,723.228516 
	C495.284027,722.428162 494.668701,721.716736 493.204285,719.687683 
	C492.891724,722.523560 492.572479,724.004150 492.588654,725.481079 
	C492.964142,759.791504 493.327972,794.102234 493.845581,828.410645 
	C493.906281,832.434021 492.816925,834.125549 488.531189,833.923584 
	C482.048431,833.617920 475.538116,833.726196 469.044922,833.882690 
	C465.558990,833.966675 464.488525,832.600525 464.495270,829.154785 
	C464.588440,781.510071 464.602448,733.864990 464.498779,686.220276 
	C464.489441,681.919128 465.838684,680.302734 470.249878,680.409424 
	C480.405914,680.655090 490.572968,680.563110 500.733490,680.439758 
	C504.059570,680.399414 506.185486,681.384705 507.962830,684.470520 
	C526.084656,715.933350 544.373596,747.299805 562.618408,778.691772 
	C565.266663,783.248474 567.928406,787.797302 571.818726,792.279480 
	C572.007202,790.686218 572.370300,789.091736 572.358459,787.499939 
	C572.109009,754.018982 571.802002,720.538391 571.546936,687.057434 
	C571.496948,680.497742 571.574707,680.494995 578.280701,680.492310 
	C584.111389,680.489929 589.950989,680.690125 595.769714,680.426514 
	C599.798828,680.243958 600.922974,681.874878 600.892517,685.689331 
	C600.754272,703.013672 600.835876,720.339661 600.836609,737.665100 
	C600.837891,767.817993 600.726379,797.971741 600.952698,828.122925 
	C600.988525,832.899292 599.450317,834.249939 594.987976,833.908142 
	C590.847595,833.590881 586.663757,833.841187 581.999146,833.841553 
z"/>
<path fill="#F78F4E" opacity="1.000000" stroke="none" 
	d="
M694.194092,835.878296 
	C672.225464,833.808167 654.318420,825.653870 643.005981,806.179443 
	C637.748657,797.128784 634.815796,787.295227 633.411743,777.027344 
	C630.501282,755.742859 631.528381,734.902161 641.149780,715.149841 
	C654.978333,686.760620 683.617004,675.870483 712.210449,679.067871 
	C722.938477,680.267456 733.324402,684.463623 743.891296,687.196838 
	C747.884033,688.229614 748.351868,690.648499 747.019043,694.009521 
	C744.635254,700.020020 742.250061,706.029846 739.870483,712.041992 
	C738.808411,714.725464 737.317200,715.157654 734.424072,714.149170 
	C726.011963,711.216675 717.599548,707.637573 708.885681,706.344849 
	C686.289307,702.992554 672.878113,716.759705 668.074097,736.239929 
	C664.505554,750.710327 664.918640,765.181335 667.929321,779.756592 
	C671.833435,798.657471 686.296448,810.510254 705.553528,808.543579 
	C717.034363,807.371094 728.311462,804.204895 739.680176,801.934753 
	C740.303223,801.810364 740.925720,801.683411 742.815857,801.301758 
	C742.815857,806.252930 742.815857,810.791687 742.815857,815.330505 
	C742.815857,828.503784 742.814209,828.497986 730.239319,832.102661 
	C718.602051,835.438660 706.715027,836.413391 694.194092,835.878296 
z"/>
<path fill="#EE8C50" opacity="1.000000" stroke="none" 
	d="
M353.826355,659.848267 
	C355.544708,657.611877 356.992981,655.580200 358.720764,653.823547 
	C361.471130,651.027161 364.766418,650.450378 368.249695,652.380371 
	C372.006958,654.462280 374.938995,657.605164 373.569489,662.016296 
	C372.074829,666.830383 369.497223,671.326477 367.160187,675.841309 
	C366.807373,676.522888 364.869873,677.147705 364.219849,676.790283 
	C359.193756,674.027161 354.304230,671.015747 349.071106,667.901978 
	C350.846771,664.926514 352.264191,662.551392 353.826355,659.848267 
z"/>
<path fill="#EB8A51" opacity="1.000000" stroke="none" 
	d="
M333.175232,658.805420 
	C330.076843,656.475098 324.633728,653.363403 325.010590,652.284546 
	C326.587402,647.770386 329.603882,643.618225 332.685028,639.812927 
	C335.385986,636.477173 338.996124,636.587646 342.391937,639.309570 
	C345.236267,641.589478 346.792206,644.341003 345.175842,647.977844 
	C343.769684,651.141724 342.017639,654.154114 340.656738,657.335327 
	C338.951721,661.321106 336.660980,661.808899 333.175232,658.805420 
z"/>
<path fill="#E48852" opacity="1.000000" stroke="none" 
	d="
M584.615234,1016.568726 
	C586.902527,1009.548645 589.069580,1002.908447 591.236572,996.268311 
	C591.745544,996.311218 592.254517,996.354187 592.763489,996.397095 
	C594.692078,1002.553162 596.622009,1008.708801 598.545166,1014.866577 
	C598.643494,1015.181396 598.670837,1015.517700 598.751709,1015.838867 
	C601.258911,1025.797119 601.259338,1025.796997 590.629089,1025.798096 
	C588.035034,1025.798340 585.441040,1025.798218 582.305237,1025.798218 
	C583.183167,1022.250122 583.839111,1019.599365 584.615234,1016.568726 
z"/>
<path fill="#EB8A51" opacity="1.000000" stroke="none" 
	d="
M829.630493,577.745850 
	C831.786255,581.331909 833.843933,584.720520 835.376282,588.332092 
	C837.007385,592.176453 835.675049,595.703491 832.480347,598.066772 
	C829.061523,600.595947 825.006714,602.643127 821.198059,598.967163 
	C817.817566,595.704529 814.989197,591.869873 811.058655,587.286682 
	C817.792603,583.728210 823.546875,580.687439 829.630493,577.745850 
z"/>
<path fill="#EE8C50" opacity="1.000000" stroke="none" 
	d="
M274.589294,774.738403 
	C274.610687,776.784241 275.004761,778.607849 274.441284,780.059875 
	C273.197174,783.265808 272.155579,787.042664 269.773590,789.194092 
	C266.560791,792.096008 264.201752,787.583313 261.402466,786.494080 
	C260.182373,786.019348 258.979614,785.366943 257.949615,784.563599 
	C255.481659,782.638977 250.822098,779.199036 251.071365,778.783264 
	C253.627670,774.519104 256.343414,769.790344 260.308350,767.092773 
	C264.060547,764.539978 268.666412,766.913086 271.911987,770.197205 
	C273.034515,771.332947 273.669769,772.950256 274.589294,774.738403 
z"/>
</svg>